<?xml version="1.0" standalone="no"?>
<!DOCTYPE svg PUBLIC "-//W3C//DTD SVG 20010904//EN"
 "http://www.w3.org/TR/2001/REC-SVG-20010904/DTD/svg10.dtd">
<svg version="1.0" xmlns="http://www.w3.org/2000/svg"
 width="800.000000pt" height="800.000000pt" viewBox="0 0 800.000000 800.000000"
 preserveAspectRatio="xMidYMid meet">
<metadata>
Created by potrace 1.14, written by Peter Selinger 2001-2017
</metadata>
<g transform="translate(0.000000,800.000000) scale(0.100000,-0.100000)"
fill="#000000" stroke="none">
<path d="M3840 7994 c-19 -2 -100 -8 -180 -14 -1233 -94 -2388 -801 -3051
-1868 -400 -641 -602 -1353 -602 -2112 0 -1070 413 -2069 1169 -2824 755 -756
1754 -1169 2824 -1169 1072 0 2069 413 2830 1173 748 748 1163 1754 1163 2820
0 1070 -413 2069 -1169 2824 -656 657 -1510 1062 -2427 1151 -152 15 -491 27
-557 19z m-193 -1147 c28 -89 99 -308 158 -487 59 -179 143 -435 187 -570 211
-647 270 -826 284 -852 25 -48 59 -58 206 -58 132 0 828 16 1933 45 701 18
1173 27 1160 21 -5 -3 -93 -19 -195 -35 -688 -113 -3155 -523 -3198 -532 -92
-19 -203 6 -273 62 -69 54 -90 112 -163 459 -37 173 -80 376 -96 450 -17 75
-30 143 -30 153 0 84 -102 -141 -279 -616 -61 -164 -121 -317 -132 -340 -51
-101 -125 -165 -234 -202 -55 -18 -75 -20 -225 -14 -91 4 -302 12 -470 18
-168 7 -335 14 -372 17 -38 2 -68 1 -68 -3 1 -4 98 -87 217 -183 118 -96 248
-202 288 -235 40 -33 165 -135 278 -227 189 -155 208 -173 236 -230 54 -108
40 -192 -65 -381 -61 -109 -196 -347 -249 -437 -100 -172 -225 -398 -225 -408
0 -6 5 -14 10 -17 11 -7 59 18 369 192 214 120 311 168 311 153 0 -5 -5 -12
-11 -16 -6 -3 -7 -9 -3 -13 10 -7 47 -81 48 -96 2 -21 27 -55 37 -50 5 4 9 0
9 -8 0 -8 -42 -45 -92 -83 -235 -177 -534 -411 -643 -504 -66 -56 -223 -191
-350 -298 -126 -108 -306 -272 -398 -365 -93 -93 -170 -167 -172 -165 -1 2 21
62 50 133 52 130 80 202 202 515 81 206 83 213 244 675 136 393 259 810 260
881 1 59 -17 117 -43 140 -13 10 -333 278 -713 593 -1064 886 -1085 904 -1082
907 1 1 540 3 1197 4 657 1 1204 4 1215 6 16 4 38 54 109 247 49 133 122 330
162 437 40 107 95 258 123 335 29 77 58 156 66 175 7 19 25 67 39 105 14 39
81 221 149 405 69 184 135 363 147 398 13 34 25 62 29 62 3 0 29 -73 58 -163z
m628 -2581 c93 -44 108 -79 103 -253 -3 -144 -13 -174 -67 -210 -57 -38 -103
-45 -290 -41 -166 3 -180 4 -226 29 -43 21 -53 33 -73 80 -20 47 -22 68 -19
169 3 131 21 181 77 214 54 31 79 34 265 35 169 1 183 -1 230 -23z m-699 -11
c74 -37 105 -107 83 -189 -24 -91 -82 -118 -266 -124 l-132 -5 -3 -81 -3 -81
-80 0 -80 0 -3 253 -2 252 218 0 c212 0 219 -1 268 -25z m1044 -174 c0 -192 1
-200 20 -206 12 -4 84 -5 160 -4 90 2 144 -1 151 -8 6 -6 9 -28 7 -49 l-3 -39
-200 0 c-170 0 -205 3 -235 17 -62 31 -64 42 -68 261 -2 109 -1 204 2 212 4
12 25 15 86 15 l80 0 0 -199z m823 188 c17 -8 41 -45 80 -128 119 -249 166
-356 158 -364 -4 -4 -41 -7 -82 -5 l-74 3 -30 62 -30 63 -133 0 -133 0 -29
-65 -29 -65 -80 0 c-44 0 -82 3 -84 8 -3 4 5 27 17 52 11 25 59 126 106 225
93 199 96 204 125 215 30 13 190 12 218 -1z m790 -3 c56 -24 80 -59 85 -125 5
-69 -14 -113 -58 -136 -31 -16 -37 -29 -20 -40 10 -6 92 -158 98 -182 3 -10
-17 -13 -76 -13 -91 0 -86 -3 -147 104 -38 67 -43 71 -85 78 -25 5 -61 7 -80
6 l-35 -3 -5 -90 -5 -90 -80 0 -80 0 -3 253 -2 252 230 0 c173 0 239 -3 263
-14z m342 -241 l0 -250 -80 0 -80 0 -3 253 -2 253 82 -3 83 -3 0 -250z m610
205 l0 -45 -160 -2 c-179 -3 -205 -10 -205 -55 0 -40 28 -48 169 -48 101 0
123 -3 161 -22 109 -55 104 -209 -7 -264 -34 -17 -63 -19 -258 -19 l-220 0 -3
48 -3 47 178 0 c195 0 223 7 223 55 0 43 -33 55 -153 55 -132 0 -186 12 -224
52 -25 26 -28 36 -28 98 0 78 14 101 80 131 35 17 64 18 245 16 l205 -2 0 -45z
m-2383 -632 c-24 -24 -11 -29 24 -9 19 12 41 21 47 21 16 0 -30 -37 -120 -97
-40 -26 -73 -51 -73 -54 0 -3 33 -22 73 -42 142 -71 234 -190 272 -352 17 -72
19 -233 4 -307 -27 -129 -110 -246 -217 -308 -34 -19 -62 -37 -62 -40 0 -3 21
-16 47 -30 201 -107 295 -353 238 -625 -45 -214 -197 -359 -445 -427 -83 -23
-95 -23 -555 -23 -455 0 -473 1 -549 23 -244 68 -381 200 -436 420 -36 141
-19 327 41 444 29 56 143 168 197 192 23 10 42 22 42 26 0 3 -19 15 -42 27
-55 26 -130 93 -167 147 -15 22 -39 70 -52 106 -20 57 -23 83 -23 215 -1 132
2 158 22 215 65 183 205 302 427 362 74 20 109 22 465 26 265 3 423 0 507 -8
l122 -13 83 47 c46 26 94 53 108 61 31 18 38 19 22 3z m1838 -98 c239 -29 423
-136 506 -295 86 -163 91 -411 12 -573 -30 -63 -119 -155 -183 -188 -30 -16
-55 -31 -55 -34 0 -3 19 -14 42 -25 24 -11 72 -48 109 -82 108 -102 153 -220
152 -398 -3 -299 -157 -493 -458 -577 -76 -21 -102 -22 -516 -26 -407 -3 -442
-2 -535 17 -274 56 -432 191 -490 421 -22 86 -22 254 0 339 33 127 110 231
214 291 34 19 62 37 62 40 0 3 -21 16 -47 30 -118 62 -212 203 -234 350 -7 43
-9 115 -6 168 20 306 218 497 562 542 90 11 768 12 865 0z"/>
<path d="M3905 4168 c-32 -19 -35 -28 -35 -144 0 -153 -5 -148 164 -152 134
-3 136 -3 161 22 24 24 25 31 25 129 0 151 -1 151 -167 155 -85 1 -135 -2
-148 -10z"/>
<path d="M3260 4115 l0 -65 115 0 c103 0 115 2 125 19 14 28 12 63 -6 89 -14
20 -23 22 -125 22 l-109 0 0 -65z"/>
<path d="M5293 4099 c-18 -39 -33 -75 -33 -80 0 -5 32 -9 70 -9 47 0 70 4 70
12 0 16 -62 148 -69 148 -3 0 -21 -32 -38 -71z"/>
<path d="M5910 4120 l0 -60 96 0 c118 0 153 15 154 67 0 40 -35 53 -147 53
l-103 0 0 -60z"/>
<path d="M3650 3104 c-70 -19 -133 -56 -160 -93 -93 -132 -52 -332 82 -392
l53 -24 415 0 415 0 60 30 c80 40 116 96 123 193 6 93 -17 161 -73 217 -76 76
-91 79 -500 82 -296 2 -370 0 -415 -13z m195 -200 c-16 -13 -73 -53 -125 -88
-156 -105 -204 -126 -172 -75 7 11 10 24 7 29 -4 6 1 13 9 16 9 3 16 11 16 18
1 34 107 96 167 96 19 0 32 4 29 9 -8 12 5 16 57 18 l42 1 -30 -24z"/>
<path d="M3657 2230 c-106 -19 -195 -89 -218 -172 -26 -97 4 -231 63 -284 82
-75 162 -87 586 -82 365 5 397 9 467 62 19 15 47 48 62 74 25 43 28 56 28 143
0 87 -2 99 -27 136 -33 50 -80 87 -139 110 -38 15 -91 17 -409 19 -201 1 -386
-1 -413 -6z"/>
<path d="M5820 3104 c-80 -22 -136 -58 -165 -108 -73 -125 -50 -286 50 -354
72 -50 106 -53 533 -50 l397 3 51 27 c60 31 97 72 114 124 16 48 8 190 -13
230 -25 48 -76 92 -136 116 -54 22 -69 23 -416 25 -294 2 -370 0 -415 -13z"/>
<path d="M5820 2227 c-65 -15 -140 -56 -169 -94 -33 -41 -54 -128 -48 -194 9
-107 64 -180 164 -221 57 -23 63 -23 438 -23 447 0 467 3 545 83 53 55 70 103
70 198 -1 118 -51 193 -158 236 -55 22 -67 23 -422 25 -259 1 -381 -2 -420
-10z"/>
</g>
</svg>
