<?xml version="1.0" standalone="no"?>
<!DOCTYPE svg PUBLIC "-//W3C//DTD SVG 20010904//EN"
 "http://www.w3.org/TR/2001/REC-SVG-20010904/DTD/svg10.dtd">
<svg version="1.0" xmlns="http://www.w3.org/2000/svg"
 width="1200.000000pt" height="1200.000000pt" viewBox="0 0 1200.000000 1200.000000"
 preserveAspectRatio="xMidYMid meet">
<metadata>
Created by potrace 1.14, written by Peter Selinger 2001-2017
</metadata>
<g transform="translate(0.000000,1200.000000) scale(0.100000,-0.100000)"
fill="#000000" stroke="none">
<path d="M5625 11989 c-1102 -65 -2185 -449 -3100 -1097 -452 -320 -881 -729
-1239 -1181 -528 -666 -923 -1477 -1119 -2301 -327 -1366 -170 -2799 443
-4045 306 -622 661 -1118 1149 -1605 494 -494 983 -844 1606 -1150 612 -301
1260 -492 1940 -569 1704 -195 3379 328 4664 1458 124 108 424 408 532 532
822 935 1330 2087 1464 3315 182 1684 -345 3350 -1464 4623 -108 124 -408 424
-532 532 -935 822 -2087 1330 -3315 1464 -314 34 -707 43 -1029 24z m1390
-1219 c9 -14 61 -13 85 2 15 10 22 10 32 0 7 -7 42 -12 93 -12 56 0 87 -5 101
-15 14 -10 48 -14 130 -15 102 0 113 -2 125 -21 11 -16 28 -22 69 -25 30 -3
59 -9 64 -14 6 -6 38 -10 71 -10 52 0 65 -4 83 -23 15 -16 35 -24 59 -25 20
-1 41 -6 47 -12 5 -5 36 -10 68 -10 49 0 63 -4 84 -25 14 -14 35 -25 48 -25
12 0 31 -7 42 -15 10 -8 34 -15 52 -15 22 0 39 -8 54 -25 13 -15 32 -25 49
-25 14 0 32 -7 39 -15 7 -8 27 -15 45 -15 32 0 55 -15 52 -35 -1 -5 14 -11 33
-13 19 -2 43 -13 54 -24 11 -11 26 -18 37 -15 13 4 19 0 19 -13 0 -17 57 -47
68 -35 3 3 11 -4 19 -15 8 -11 22 -20 32 -20 10 0 29 -8 42 -19 13 -10 34 -21
47 -25 12 -4 22 -11 22 -16 0 -4 12 -11 27 -15 14 -3 50 -22 78 -41 29 -19 55
-34 59 -34 3 0 43 -23 87 -51 45 -28 88 -53 98 -56 14 -5 169 -104 196 -125
100 -79 179 -135 228 -163 15 -9 27 -20 27 -25 0 -6 5 -10 11 -10 7 0 27 -16
45 -34 19 -19 51 -48 71 -63 21 -15 47 -37 58 -49 11 -12 47 -44 80 -71 33
-28 85 -76 115 -108 30 -31 68 -69 84 -83 57 -52 112 -109 156 -161 25 -30 68
-77 95 -105 28 -28 64 -71 80 -95 17 -25 43 -59 58 -75 16 -17 42 -52 59 -78
17 -27 35 -48 40 -48 4 0 8 -5 8 -11 0 -6 16 -29 35 -52 19 -22 35 -45 35 -50
0 -5 15 -26 33 -48 19 -21 46 -62 62 -91 15 -29 50 -83 77 -120 26 -37 48 -72
48 -77 0 -12 35 -72 77 -133 18 -26 33 -56 33 -66 0 -11 9 -27 20 -37 11 -10
20 -26 20 -35 0 -10 7 -24 16 -31 9 -7 20 -24 25 -37 7 -18 15 -23 29 -19 13
3 20 0 20 -9 0 -8 -4 -14 -10 -14 -14 0 -12 -13 5 -36 15 -19 15 -19 8 1 -6
18 -5 18 10 6 9 -7 17 -26 17 -42 0 -22 7 -32 25 -41 15 -7 25 -19 25 -33 0
-12 7 -30 15 -41 8 -10 15 -33 15 -50 0 -23 6 -34 25 -42 18 -9 25 -19 25 -41
0 -16 7 -34 15 -41 9 -7 15 -29 15 -51 0 -28 7 -45 26 -64 17 -17 23 -32 19
-45 -3 -10 1 -33 9 -49 9 -17 16 -44 16 -62 0 -21 8 -40 25 -55 20 -19 25 -33
25 -73 0 -27 5 -53 10 -56 6 -3 10 -34 10 -69 0 -54 3 -66 25 -86 22 -20 25
-32 25 -86 0 -35 4 -65 9 -68 4 -3 11 -54 15 -113 6 -90 10 -109 26 -120 18
-13 20 -26 20 -143 0 -73 4 -131 10 -135 6 -3 9 -77 8 -184 -1 -97 2 -182 5
-188 4 -6 2 -13 -3 -15 -6 -2 -17 -80 -25 -178 -20 -240 -51 -509 -63 -545 -6
-16 -13 -64 -16 -105 -3 -42 -12 -95 -21 -119 -8 -24 -15 -64 -15 -89 0 -25
-9 -75 -19 -111 -11 -36 -27 -102 -36 -146 -9 -44 -32 -129 -51 -190 -19 -60
-34 -116 -34 -123 0 -7 -9 -34 -19 -60 -11 -26 -32 -78 -46 -117 -15 -38 -40
-97 -56 -131 -16 -34 -29 -68 -29 -76 0 -25 -33 -104 -97 -233 -86 -171 -165
-323 -180 -346 -10 -15 -58 -91 -108 -170 -49 -79 -108 -166 -130 -194 -22
-27 -53 -70 -69 -95 -27 -41 -109 -142 -145 -180 -8 -8 -26 -33 -40 -55 -26
-42 -52 -69 -279 -299 -190 -192 -259 -257 -296 -280 -19 -12 -67 -52 -107
-89 -41 -38 -84 -73 -97 -78 -26 -10 -741 -13 -766 -3 -9 3 -16 10 -16 14 0
12 113 96 140 105 13 4 39 24 59 44 20 20 63 59 95 86 174 146 336 299 336
316 0 5 -4 9 -10 9 -16 0 -12 27 5 34 10 3 15 -1 15 -11 0 -12 5 -11 24 8 13
13 40 37 60 53 30 23 36 34 32 53 -5 17 0 29 19 45 14 12 25 29 25 38 0 18 25
43 53 53 9 4 17 15 17 25 0 10 20 37 45 59 32 29 45 48 45 67 0 31 15 50 48
60 13 4 22 16 22 26 0 11 11 27 25 36 14 9 25 25 25 35 0 10 16 31 35 46 20
16 35 37 35 49 0 12 7 27 15 34 8 7 15 18 15 24 0 7 8 21 18 32 9 10 27 40 40
65 12 26 36 62 52 80 16 19 30 44 30 56 0 12 11 30 25 41 13 11 22 22 18 25
-3 4 2 18 11 31 9 14 16 37 16 51 0 17 8 29 25 37 14 6 25 19 25 28 0 20 36
96 49 105 15 9 41 66 41 90 0 12 11 32 25 45 15 14 25 35 25 51 0 15 5 31 10
34 6 3 10 23 10 44 0 27 7 44 25 61 14 13 25 33 25 45 0 11 7 31 16 43 8 12
13 31 9 41 -3 12 10 49 35 97 27 52 40 90 40 117 0 24 8 49 20 64 12 15 20 41
20 62 0 20 7 49 15 65 10 18 15 57 15 112 0 45 5 86 10 89 6 3 10 23 10 44 0
22 6 44 15 51 9 7 15 29 15 51 0 21 5 41 10 44 6 4 10 57 10 126 0 86 4 126
14 142 11 18 15 96 18 385 3 289 7 365 17 372 17 10 17 225 1 274 -6 17 -15
69 -20 116 -22 198 -36 296 -43 308 -5 6 -12 33 -17 60 -4 26 -15 65 -24 87
-8 22 -15 61 -16 87 0 26 -4 49 -9 53 -5 3 -13 20 -16 38 -4 17 -13 46 -20 62
-19 43 -45 124 -54 165 -4 19 -15 49 -24 67 -9 18 -17 40 -17 50 0 10 -7 27
-15 37 -8 11 -15 26 -15 34 0 8 -7 30 -16 50 -44 99 -53 119 -58 139 -4 11
-13 24 -21 27 -8 3 -15 12 -15 21 0 28 -165 353 -197 387 -11 13 -32 46 -46
73 -14 28 -37 65 -51 84 -14 19 -26 38 -26 42 0 4 -32 49 -70 101 -39 51 -73
103 -76 116 -4 12 -10 22 -14 22 -8 0 -39 37 -118 140 -59 76 -213 243 -361
390 -133 132 -179 173 -246 222 -5 4 -36 31 -68 59 -74 66 -133 113 -195 152
-79 51 -206 138 -212 145 -6 9 -38 29 -70 44 -14 7 -27 15 -30 18 -11 13 -100
60 -112 60 -8 0 -20 6 -26 13 -13 12 -159 92 -262 142 -30 15 -62 31 -70 36
-8 5 -26 14 -40 19 -14 6 -38 17 -55 25 -69 33 -129 55 -150 55 -12 0 -28 7
-35 15 -7 8 -24 15 -39 15 -15 0 -35 6 -46 14 -11 7 -45 20 -75 29 -91 25
-151 44 -252 78 -18 6 -55 15 -83 20 -27 4 -68 15 -90 23 -22 8 -62 17 -89 20
-27 3 -54 10 -60 15 -6 5 -42 12 -79 16 -37 4 -82 11 -100 17 -18 5 -77 14
-132 19 -55 5 -140 14 -190 20 -53 7 -253 12 -485 12 -407 1 -553 -9 -695 -49
-27 -7 -74 -16 -103 -19 -29 -3 -65 -10 -78 -16 -14 -5 -41 -9 -61 -9 -35 0
-181 -40 -240 -66 -17 -8 -41 -14 -52 -14 -12 0 -32 -7 -45 -15 -13 -9 -48
-18 -77 -22 -30 -3 -63 -12 -74 -19 -11 -8 -25 -14 -33 -14 -17 0 -152 -61
-152 -69 0 -3 -16 -7 -36 -9 -19 -1 -42 -9 -50 -17 -9 -8 -23 -15 -32 -15 -9
0 -32 -9 -50 -20 -18 -11 -41 -20 -52 -20 -11 0 -20 -6 -20 -14 0 -8 -16 -20
-36 -26 -19 -7 -38 -18 -41 -26 -3 -8 -18 -14 -33 -14 -15 0 -33 -7 -40 -15
-7 -8 -18 -15 -25 -15 -8 0 -27 -11 -43 -25 -17 -14 -37 -25 -45 -25 -9 0 -19
-4 -22 -10 -3 -5 -1 -10 5 -10 6 0 8 -5 4 -11 -3 -6 -17 -9 -30 -6 -15 3 -24
0 -24 -9 0 -7 -6 -17 -13 -21 -8 -4 -21 -20 -31 -34 -17 -26 -63 -35 -59 -11
4 16 -24 4 -31 -14 -3 -8 -17 -14 -31 -14 -15 0 -25 -5 -24 -12 3 -21 -12 -48
-27 -48 -8 0 -14 5 -14 10 0 15 -49 -22 -50 -37 0 -7 -9 -13 -20 -13 -11 0
-20 -4 -20 -10 0 -5 7 -7 15 -4 8 4 15 1 15 -6 0 -8 -12 -11 -36 -8 -26 3 -38
0 -45 -14 -5 -9 -15 -15 -22 -12 -7 2 -21 -2 -32 -10 -19 -15 -19 -15 -1 -16
15 0 16 -2 6 -15 -7 -9 -22 -14 -34 -13 -17 3 -21 -2 -18 -24 2 -22 -2 -29
-21 -33 -14 -4 -31 -6 -38 -5 -26 4 -39 0 -39 -12 -1 -21 -37 -58 -57 -58 -20
0 -75 -39 -55 -40 19 0 14 -14 -9 -29 -19 -11 -21 -11 -16 3 11 28 -17 18 -51
-18 -21 -23 -28 -36 -20 -39 10 -4 11 -7 1 -18 -10 -9 -13 -10 -13 -1 0 19
-17 14 -42 -11 -13 -13 -31 -26 -41 -30 -24 -9 -22 -30 3 -22 11 4 20 2 20 -4
0 -6 -11 -11 -24 -11 -14 0 -37 -11 -52 -25 -15 -14 -33 -25 -40 -25 -8 0 -14
-6 -14 -13 0 -7 -13 -24 -28 -37 -15 -14 -31 -33 -35 -42 -3 -10 -16 -18 -27
-18 -11 0 -23 -7 -26 -15 -4 -8 -28 -37 -55 -63 -27 -26 -49 -55 -49 -64 0
-10 -6 -18 -14 -18 -15 0 -66 -62 -66 -79 0 -6 -7 -11 -15 -11 -8 0 -15 -5
-15 -12 0 -19 -102 -118 -122 -118 -22 0 -23 23 -3 44 8 8 19 23 23 33 15 35
47 83 56 83 15 0 53 47 60 74 3 14 11 26 16 26 6 0 10 6 10 13 0 7 17 30 39
52 21 22 37 45 34 51 -2 7 4 11 14 11 13 -2 18 5 18 24 0 20 4 25 17 21 11 -2
18 1 18 9 0 13 43 63 86 101 40 35 92 94 110 126 10 17 24 32 30 32 6 0 24 15
40 33 16 19 34 36 40 38 19 7 85 99 79 109 -4 6 5 10 20 10 19 0 45 19 95 70
38 39 74 70 80 70 5 0 10 5 10 10 0 6 6 10 14 10 8 0 48 32 88 70 40 39 86 73
101 76 15 4 32 15 38 25 5 11 14 19 20 19 11 0 30 14 64 48 12 12 25 22 29 22
4 0 28 16 53 35 25 19 54 35 63 35 10 0 20 7 24 15 3 8 12 15 20 15 8 0 21 6
28 13 20 20 139 97 149 97 10 0 153 80 210 117 19 12 45 23 56 23 12 0 45 16
75 35 29 20 64 38 78 42 13 3 50 21 81 40 32 18 71 33 87 33 16 0 35 7 42 15
7 8 20 15 29 15 9 0 25 6 36 14 11 8 39 19 63 26 23 8 47 19 53 27 6 7 21 13
32 13 11 0 28 7 38 16 10 9 39 19 63 21 25 3 51 12 57 19 6 8 23 14 38 14 35
0 48 10 52 40 4 22 9 25 54 28 27 2 57 10 67 19 10 9 25 12 36 9 15 -5 26 1
42 24 21 30 22 30 115 30 52 0 96 4 99 9 3 5 34 12 68 16 44 5 67 13 76 26 11
16 27 19 110 19 69 1 103 5 116 15 15 11 49 15 135 15 64 0 123 5 131 10 21
13 727 13 735 0z m-4703 -3082 c255 -10 248 -8 353 -92 57 -45 91 -80 93 -94
4 -26 -2 -27 -59 -6 -33 12 -78 16 -179 16 -117 -1 -152 -5 -260 -32 -69 -17
-137 -34 -152 -37 -16 -3 -28 -9 -28 -13 0 -4 -10 -10 -23 -14 -12 -3 -31 -13
-42 -23 -36 -33 -100 -72 -120 -75 -11 -1 -54 4 -95 11 -56 10 -120 12 -250 7
-195 -7 -229 -12 -237 -33 -11 -28 12 -32 107 -18 166 26 368 17 455 -19 170
-72 231 -125 263 -228 31 -99 35 -163 17 -243 -24 -109 -60 -168 -140 -234
-103 -85 -138 -104 -263 -145 -99 -31 -126 -36 -211 -36 -201 0 -307 84 -336
267 -12 75 -5 113 20 113 8 0 21 -15 29 -34 21 -50 88 -74 162 -58 51 10 103
38 104 55 0 18 -32 17 -59 -2 -20 -15 -44 -21 -80 -21 -44 0 -56 5 -88 34 -32
29 -37 40 -39 85 -3 59 -9 71 -33 71 -21 0 -44 -41 -61 -113 -17 -65 -1 -164
40 -250 36 -74 78 -115 150 -148 25 -11 53 -25 62 -30 10 -5 62 -9 116 -9 106
0 242 28 272 55 9 8 23 15 30 15 35 0 160 75 222 132 79 75 120 147 149 264
20 80 21 86 5 156 -29 128 -88 228 -155 263 -63 32 -43 70 44 81 33 4 141 8
240 8 178 1 181 1 237 -27 59 -29 118 -88 118 -119 0 -9 -14 -33 -30 -52 -39
-44 -105 -61 -192 -50 -35 4 -66 7 -70 6 -4 -1 -17 12 -30 29 -59 77 -75 92
-91 86 -21 -8 -21 -28 -1 -114 26 -113 142 -293 188 -293 5 0 20 -9 35 -19 49
-35 111 -44 219 -33 100 11 182 43 241 96 35 32 81 102 81 125 0 37 50 27 85
-15 17 -20 47 -55 67 -78 20 -23 49 -70 64 -106 14 -36 32 -78 39 -95 22 -49
55 -203 55 -252 0 -75 -57 -268 -110 -374 -42 -82 -130 -181 -192 -214 -29
-15 -60 -34 -68 -41 -23 -19 -128 -46 -197 -51 -47 -4 -78 1 -123 16 -106 37
-162 80 -224 174 -46 69 -49 135 -11 212 52 101 165 195 235 195 23 0 33 -26
20 -50 -27 -50 8 -134 71 -174 35 -22 115 -18 171 8 39 19 127 99 154 141 55
87 79 210 78 398 0 105 -3 131 -17 144 -25 26 -30 10 -18 -59 6 -35 12 -106
13 -158 2 -134 -23 -210 -110 -335 -33 -47 -140 -115 -193 -122 -31 -5 -42 0
-73 28 -20 19 -40 48 -45 65 -8 27 -4 39 20 75 33 50 36 64 13 73 -24 9 -132
-13 -190 -39 -57 -26 -132 -106 -158 -169 -19 -45 -21 -160 -4 -220 7 -28 31
-62 75 -106 34 -36 63 -74 63 -85 0 -47 -109 -125 -175 -125 -73 0 -165 94
-165 168 0 27 44 101 69 117 6 3 11 15 11 26 0 40 -94 15 -199 -55 -83 -55
-122 -97 -156 -163 -14 -29 -38 -61 -53 -72 -30 -21 -143 -51 -192 -51 -16 0
-32 -5 -36 -12 -9 -14 155 -3 203 14 43 16 61 1 47 -39 -8 -25 -52 -57 -104
-79 -90 -37 -113 -44 -137 -44 -15 0 -50 -7 -77 -15 -33 -10 -93 -15 -183 -15
-118 0 -144 3 -211 26 -42 14 -92 37 -109 50 -28 21 -33 31 -33 68 0 49 -18
70 -66 80 -27 6 -37 17 -64 72 -28 58 -32 77 -37 178 -9 170 14 230 132 348
70 70 176 119 224 103 31 -10 26 -29 -21 -66 -58 -47 -66 -57 -85 -92 -62
-120 -43 -324 42 -435 39 -51 119 -112 177 -134 53 -20 226 -35 255 -22 13 6
-1 10 -47 15 -109 11 -175 22 -180 29 -3 4 -25 17 -49 30 -24 12 -50 27 -58
33 -163 135 -204 375 -85 500 51 53 101 78 144 70 39 -6 53 6 43 36 -8 27 -36
36 -175 57 -51 8 -140 -28 -187 -76 -52 -54 -81 -54 -89 1 -4 22 -13 47 -22
55 -12 13 -13 36 -7 137 3 67 13 145 21 172 34 113 105 218 231 341 80 77 101
114 67 114 -23 0 -170 -151 -231 -236 -28 -39 -60 -92 -72 -118 -22 -51 -41
-174 -41 -267 0 -59 23 -202 42 -254 8 -25 6 -39 -12 -78 -14 -29 -29 -47 -39
-47 -9 0 -21 -4 -27 -10 -6 -6 -22 -6 -44 0 -19 6 -48 10 -65 10 -16 0 -50 13
-75 30 -24 16 -46 27 -48 25 -3 -2 -2 -15 2 -28 8 -32 64 -55 155 -63 38 -4
74 -10 80 -13 6 -4 12 -65 15 -146 4 -107 10 -153 26 -195 25 -68 25 -66 -2
-73 -15 -4 -33 2 -54 18 -18 14 -37 25 -41 25 -5 0 -22 14 -38 30 -31 32 -55
39 -55 15 0 -28 -38 -15 -72 24 -22 26 -43 69 -61 125 -23 73 -27 104 -27 202
0 101 -3 122 -24 168 -67 146 -78 381 -23 481 9 17 23 46 32 65 9 19 21 45 27
57 6 12 56 69 112 127 106 110 153 143 344 243 75 39 121 72 171 121 38 37 95
90 127 117 61 52 183 135 200 135 5 0 31 11 57 26 27 14 70 28 97 31 28 3 48
10 47 17 -1 7 17 10 57 8 48 -3 58 -1 53 11 -5 12 6 14 60 9 49 -4 67 -2 74 9
6 10 32 14 100 14 69 0 93 3 97 14 4 11 6 11 13 0 6 -11 52 -16 181 -21z m355
-44 c-3 -3 -12 -4 -19 -1 -8 3 -5 6 6 6 11 1 17 -2 13 -5z m43 -4 c8 -5 12
-11 10 -14 -3 -2 -14 2 -24 10 -22 15 -10 19 14 4z m74 -35 c11 -8 28 -12 38
-9 11 3 30 -1 43 -10 13 -9 35 -16 48 -16 12 0 27 -4 32 -9 23 -20 103 -58
138 -65 20 -4 37 -11 37 -16 0 -6 7 -10 15 -10 9 0 58 -41 109 -91 83 -81 93
-94 83 -110 -16 -25 1 -53 34 -57 30 -4 59 -51 59 -97 0 -19 5 -37 10 -40 6
-3 10 -15 10 -25 0 -10 11 -27 25 -38 19 -15 25 -29 25 -60 0 -22 5 -42 12
-44 6 -2 8 -9 5 -16 -5 -7 -38 14 -95 60 -48 38 -116 84 -152 100 -36 17 -73
35 -82 39 -10 5 -24 9 -32 9 -29 0 -73 49 -79 87 -10 60 -58 142 -107 181 -63
52 -230 230 -230 246 0 11 35 5 54 -9z m-87 -154 c78 -18 148 -48 174 -73 8
-7 35 -29 61 -48 72 -54 93 -108 92 -239 -1 -93 -4 -111 -25 -146 -61 -103
-131 -148 -258 -165 -134 -18 -226 3 -298 66 -61 54 -129 204 -92 204 5 0 33
-7 60 -16 66 -22 180 -14 237 15 40 20 92 90 92 122 0 24 -56 106 -85 125 -14
9 -56 28 -93 40 -59 21 -86 24 -215 24 -137 0 -219 -9 -257 -29 -8 -4 -23 -5
-33 -2 -17 6 -16 8 3 29 48 52 151 83 335 101 138 14 220 12 302 -8z m2737
-58 c33 -33 66 -98 66 -129 0 -13 5 -26 10 -29 6 -3 9 -32 9 -63 -1 -31 -3
-48 -6 -37 -8 33 -23 42 -23 13 0 -15 5 -30 10 -33 6 -3 10 -15 10 -26 0 -10
4 -27 9 -37 5 -9 13 -28 19 -42 5 -14 22 -51 36 -83 14 -32 26 -61 26 -65 0
-5 8 -26 19 -48 10 -21 33 -73 51 -114 33 -77 112 -238 147 -300 16 -27 26
-35 49 -35 19 0 30 -6 32 -17 6 -29 32 -20 39 13 4 21 9 27 16 20 17 -17 24
-13 32 16 9 36 8 699 0 747 -8 41 -19 46 -30 14 l-6 -23 -8 25 c-4 14 -11 66
-15 116 -6 83 -5 93 15 118 l21 27 194 -1 194 -2 45 -51 c44 -51 84 -131 71
-144 -3 -4 -13 2 -20 13 -8 10 -17 16 -21 13 -12 -13 343 -543 435 -649 41
-47 32 -50 -140 -50 -147 0 -162 2 -180 20 -11 11 -20 24 -20 28 0 5 -8 17
-17 28 -10 11 -49 65 -87 122 -38 56 -75 102 -81 102 -20 0 2 -391 23 -412 6
-6 12 2 17 19 l7 28 13 -35 c8 -21 14 -83 14 -156 1 -148 -7 -214 -25 -214 -8
0 -14 7 -14 16 0 27 -17 6 -24 -30 -8 -41 -18 -46 -109 -47 -65 -1 -144 -15
-107 -19 10 -1 9 -4 -5 -9 -26 -11 -201 -21 -388 -23 l-147 -1 -30 28 c-16 16
-46 63 -67 104 -20 42 -41 79 -47 83 -6 4 -75 8 -154 8 -99 0 -148 4 -158 13
-62 49 -83 87 -49 87 25 0 17 43 -15 86 -16 21 -30 44 -30 50 0 6 -11 21 -24
33 l-25 23 -16 -38 c-62 -144 -68 -174 -36 -174 30 0 33 -39 7 -95 -13 -27
-37 -77 -52 -110 -33 -72 -44 -84 -86 -96 -45 -12 -358 -11 -395 1 -64 23 -66
120 -5 200 37 49 43 51 53 23 5 -16 7 -16 13 5 4 12 12 22 17 22 5 0 9 9 9 19
0 11 4 21 8 23 4 2 26 41 49 88 75 156 143 301 143 305 0 2 12 30 26 62 54
117 94 215 94 229 0 8 5 14 10 14 6 0 10 6 10 13 0 7 16 50 35 96 40 94 40 97
20 117 -21 21 -19 57 5 106 11 23 20 46 20 52 0 5 14 25 32 43 l32 33 212 0
211 0 27 -27z m1801 7 c4 -6 -9 -10 -32 -11 l-38 -1 40 -13 c22 -8 82 -14 133
-14 65 -1 94 -5 97 -14 3 -7 7 -174 8 -372 3 -336 8 -405 27 -405 4 0 10 30
14 68 12 122 28 227 37 244 5 10 9 26 9 37 0 51 109 217 184 281 38 32 104 80
111 80 3 0 24 9 48 19 78 36 163 52 286 52 64 0 130 -3 147 -6 155 -35 264
-94 354 -192 60 -65 77 -90 119 -173 50 -101 50 -101 70 -90 27 14 34 61 40
270 l6 185 310 6 c171 4 347 7 393 8 63 1 82 4 82 15 0 8 -6 16 -12 19 -7 2
-1 8 14 12 14 4 35 2 46 -4 12 -6 37 -11 56 -11 20 0 44 -4 54 -9 9 -5 39 -20
65 -32 64 -31 202 -176 211 -222 4 -17 12 -54 18 -82 13 -60 16 -160 5 -171
-4 -4 -13 -2 -19 4 -14 14 -32 16 -24 3 4 -5 1 -11 -4 -13 -6 -2 -15 -23 -21
-47 -18 -80 -60 -150 -128 -212 -35 -32 -67 -59 -72 -59 -4 0 -28 -9 -53 -20
l-46 -19 76 -107 c70 -99 115 -164 139 -203 22 -35 80 -117 92 -129 7 -7 13
-18 13 -23 0 -6 -78 -8 -197 -7 l-198 3 -92 130 c-225 317 -304 415 -335 415
-27 0 -40 -91 -44 -320 -3 -118 -8 -218 -12 -222 -5 -5 -78 -7 -162 -6 l-154
3 3 97 c3 94 -16 285 -29 301 -15 17 -70 -16 -100 -61 -16 -26 -38 -58 -47
-72 -9 -14 -50 -57 -90 -96 -77 -76 -157 -122 -262 -151 -78 -22 -334 -22
-413 0 -81 22 -197 79 -238 117 -42 37 -71 50 -98 43 -23 -6 -70 31 -83 66
-12 31 -21 21 -29 -32 -5 -36 -9 -42 -28 -40 -29 4 -42 -29 -42 -107 0 -32 -4
-61 -8 -64 -4 -2 -80 -6 -167 -8 l-160 -3 -9 58 c-8 55 -10 58 -32 53 -20 -5
-24 -2 -30 28 -8 47 -1 308 9 324 7 10 12 10 23 1 23 -19 29 15 29 181 l0 155
-165 2 c-130 1 -165 4 -165 15 0 14 215 341 228 346 4 2 7 8 7 14 0 6 11 25
24 43 34 44 18 67 -18 25 -51 -61 -15 15 42 88 l33 42 74 0 c41 0 77 -4 80
-10z m-2354 -243 c-13 -13 -26 -3 -16 12 3 6 11 8 17 5 6 -4 6 -10 -1 -17z
m-1715 -105 c90 -41 207 -117 269 -174 66 -61 125 -136 125 -159 0 -16 61
-139 69 -139 3 0 7 -35 8 -77 1 -43 5 -113 8 -157 4 -51 3 -82 -4 -89 -6 -6
-11 -30 -11 -54 0 -24 -4 -43 -10 -43 -5 0 -10 -6 -10 -14 0 -7 -9 -24 -19
-37 -19 -25 -19 -73 0 -85 5 -3 9 -21 9 -41 0 -30 -2 -34 -15 -23 -8 7 -15 19
-15 26 0 8 -4 14 -10 14 -14 0 -11 -58 5 -105 20 -55 19 -79 -6 -101 -12 -10
-25 -29 -30 -41 -7 -20 -16 -23 -57 -23 -38 0 -53 5 -69 23 -24 26 -48 110
-37 128 13 22 12 576 -2 664 -22 142 -96 297 -186 389 -75 77 -98 105 -98 122
0 19 40 17 86 -4z m174 -1017 c0 -53 -21 -138 -38 -158 -9 -10 -30 -24 -47
-31 -46 -20 -125 -97 -134 -133 -8 -27 -7 -31 7 -26 10 3 47 35 84 70 69 66
89 74 119 47 14 -13 17 -26 12 -68 -7 -58 -20 -89 -34 -81 -17 11 -68 -6 -99
-32 -37 -30 -37 -41 -5 -53 34 -13 32 -40 -6 -71 -30 -24 -31 -28 -24 -78 5
-38 13 -56 30 -67 27 -18 46 -11 84 29 22 24 23 33 22 131 -1 57 3 107 8 110
15 9 19 -37 20 -192 0 -133 -2 -146 -24 -187 -17 -29 -25 -60 -25 -91 0 -42
-4 -51 -43 -88 -125 -121 -140 -131 -302 -201 -89 -39 -168 -50 -345 -49 -190
1 -286 17 -425 69 -38 15 -81 29 -95 32 -14 3 -34 12 -45 19 -11 8 -28 14 -39
14 -11 0 -48 14 -83 31 -60 29 -66 30 -111 19 -36 -9 -66 -10 -127 -1 -198 27
-250 46 -311 114 -66 74 -87 174 -43 210 25 20 26 20 197 1 46 -5 52 -8 52
-29 0 -13 -9 -40 -21 -59 l-21 -36 21 -44 c40 -82 80 -112 146 -108 47 3 93
21 99 39 11 27 -136 226 -175 238 -14 5 -19 14 -17 28 2 18 12 23 57 30 61 8
81 -2 81 -40 0 -37 23 -74 78 -125 72 -68 123 -90 214 -96 93 -5 125 1 133 29
10 32 -12 49 -65 49 -50 0 -66 11 -88 63 -7 15 -12 46 -12 67 0 34 4 41 25 46
17 4 32 1 43 -9 49 -45 269 -49 357 -7 50 23 135 48 140 39 3 -4 21 -16 40
-25 40 -19 43 -31 15 -67 -24 -30 -25 -65 -6 -112 18 -41 52 -53 92 -32 62 32
67 46 59 154 -7 97 -6 98 19 122 47 44 22 84 -28 46 -21 -16 -66 -20 -66 -6 0
20 112 91 145 91 33 0 48 16 42 41 -5 18 2 30 31 57 20 18 46 38 57 43 22 10
33 17 117 71 73 49 167 153 191 215 33 85 67 104 67 38z m280 -121 c0 -8 -4
-12 -10 -9 -5 3 -10 13 -10 21 0 8 5 12 10 9 6 -3 10 -13 10 -21z m-1454 -94
c-21 -53 -20 -67 5 -115 42 -80 105 -125 175 -125 89 0 139 28 218 120 15 19
24 21 55 14 20 -4 75 -9 123 -9 50 -1 93 -6 99 -12 15 -15 -38 -69 -151 -152
-92 -68 -133 -91 -195 -109 -129 -37 -156 -42 -248 -42 -130 0 -197 20 -253
76 -124 123 -62 288 151 402 31 17 40 -2 21 -48z m3764 6 c25 -1 81 -3 124 -4
61 -2 77 -5 68 -14 -7 -7 -82 -13 -219 -17 -186 -5 -198 -6 -113 -12 52 -4
286 -7 518 -8 357 -1 433 -4 480 -17 32 -9 61 -20 66 -25 6 -5 16 -9 23 -9 16
0 26 -8 103 -78 36 -33 69 -76 90 -117 31 -61 33 -70 31 -162 -1 -70 -8 -115
-23 -158 -21 -62 -26 -70 -199 -325 -58 -85 -145 -213 -194 -285 -48 -71 -108
-158 -131 -192 -24 -34 -44 -66 -44 -71 0 -6 -4 -12 -9 -14 -5 -1 -39 -48 -76
-103 -38 -55 -111 -162 -163 -239 -269 -394 -347 -515 -338 -523 6 -6 55 49
62 71 5 14 8 15 14 6 7 -11 -21 -57 -70 -117 -6 -7 -14 -23 -20 -37 -5 -13
-41 -71 -79 -129 -39 -57 -71 -107 -71 -111 0 -4 -7 -14 -15 -23 -17 -16 -113
-162 -135 -203 -7 -14 -19 -29 -26 -33 -8 -4 -14 -13 -14 -19 0 -6 -16 -30
-35 -54 -19 -23 -35 -45 -35 -48 0 -2 -34 -53 -75 -113 -136 -197 -152 -220
-177 -242 -10 -8 -18 -20 -18 -26 0 -5 -13 -23 -29 -40 -17 -16 -44 -45 -60
-64 -17 -19 -31 -29 -31 -22 0 6 -6 11 -13 11 -15 0 -53 -45 -107 -125 -19
-27 -36 -52 -40 -55 -3 -3 -41 -56 -84 -117 -43 -62 -82 -113 -87 -113 -4 0
-18 4 -31 9 -13 5 -55 19 -95 31 -76 22 -106 41 -165 105 -38 41 -108 149
-108 167 0 5 -10 8 -22 6 -18 -3 -23 4 -35 47 -28 107 -14 206 46 335 26 56
147 237 211 315 19 23 53 68 75 99 24 34 45 54 53 51 9 -3 11 1 7 15 -5 14 -2
20 9 20 9 0 16 9 16 20 0 12 7 20 16 20 14 0 14 -3 4 -15 -22 -27 -1 -30 24
-4 32 32 606 843 631 890 5 11 13 19 17 19 5 0 8 7 8 15 0 8 4 15 8 15 4 0 16
15 27 33 10 17 23 37 28 42 14 17 155 221 612 887 28 40 52 76 53 80 2 4 -328
8 -733 8 -774 0 -795 1 -890 45 -47 21 -114 83 -135 124 -10 21 -26 44 -35 51
-22 18 -65 112 -65 140 0 13 -8 24 -19 27 -31 8 -32 40 -4 261 7 60 26 93 65
115 32 17 66 18 783 11 413 -3 770 -7 795 -8z m3792 -7 c141 -22 257 -100 341
-227 51 -78 58 -99 64 -207 5 -82 -12 -160 -47 -215 -9 -14 -25 -43 -35 -65
-19 -39 -65 -95 -65 -80 0 4 9 20 21 36 26 37 11 38 -23 2 -31 -34 -52 -87
-42 -105 5 -10 4 -10 -5 -2 -10 9 -20 5 -42 -19 -16 -16 -29 -38 -29 -48 0
-11 -4 -19 -10 -19 -5 0 -10 -11 -10 -24 0 -17 -8 -27 -29 -36 -16 -6 -32 -19
-35 -28 -3 -9 -16 -36 -30 -59 -15 -25 -22 -49 -19 -62 3 -12 1 -21 -6 -21 -6
0 -11 -6 -11 -12 -1 -22 -34 -54 -62 -61 -17 -5 -30 -17 -37 -38 -14 -42 -14
-43 5 -24 9 9 18 14 21 11 7 -7 -30 -45 -39 -40 -4 3 -8 -6 -8 -19 0 -14 -7
-30 -15 -37 -9 -7 -13 -15 -11 -17 2 -3 -3 -13 -12 -22 -9 -10 -26 -30 -36
-45 -16 -22 -21 -24 -34 -14 -13 11 -15 9 -9 -19 4 -22 2 -35 -9 -44 -9 -7
-25 -31 -36 -53 -20 -40 -57 -96 -69 -106 -3 -3 -13 -18 -22 -35 -8 -16 -34
-50 -56 -75 -23 -25 -49 -61 -58 -80 -10 -19 -24 -42 -33 -51 -8 -9 -24 -31
-35 -49 -53 -89 -116 -176 -138 -190 -17 -10 -19 -10 -14 4 6 15 4 14 -18 -1
-13 -10 -25 -22 -25 -26 0 -5 -11 -23 -25 -41 -14 -18 -22 -36 -17 -41 4 -5 1
-5 -6 -1 -7 4 -15 0 -19 -11 -7 -17 -14 -28 -39 -56 -5 -7 -43 -59 -83 -117
-91 -133 -147 -212 -158 -225 -5 -5 -29 -39 -53 -75 -24 -36 -46 -67 -50 -70
-6 -5 -42 -55 -140 -195 -31 -44 -72 -102 -91 -130 -20 -27 -55 -79 -79 -115
-24 -36 -47 -67 -50 -70 -3 -3 -42 -58 -86 -123 -43 -65 -88 -131 -99 -146
-11 -15 -38 -54 -59 -87 -22 -32 -68 -100 -104 -150 l-64 -91 -46 13 c-137 35
-176 54 -229 111 -99 105 -162 280 -135 372 7 21 12 52 12 69 0 17 5 34 10 37
6 3 10 17 10 30 0 13 3 25 8 27 5 2 56 97 81 152 2 5 -2 7 -8 5 -7 -3 -13 -9
-14 -14 -2 -14 -39 -55 -49 -55 -5 0 3 20 17 45 14 25 25 52 25 60 0 8 5 15
10 15 6 0 10 4 10 10 0 5 33 57 73 115 39 59 79 117 87 129 52 79 80 119 194
279 69 98 126 181 126 185 0 5 8 17 18 28 30 32 90 116 108 152 9 17 20 32 25
32 5 0 9 5 9 10 0 6 25 44 56 85 70 96 164 233 164 240 0 3 9 15 19 26 19 21
126 173 147 210 6 11 21 30 33 43 11 12 21 27 21 32 0 6 16 29 35 51 19 23 35
44 35 47 0 3 23 37 50 76 28 39 50 75 50 80 0 6 4 10 8 10 4 0 21 23 37 50 16
28 33 50 37 50 4 0 8 6 8 13 0 7 9 23 19 34 25 26 151 213 151 223 0 4 9 15
20 25 11 10 20 21 20 25 0 4 -116 10 -257 14 -248 6 -378 15 -370 23 3 2 35 6
73 9 38 3 85 9 104 14 40 9 55 9 -550 19 -400 7 -406 7 -464 31 -193 81 -288
301 -231 535 9 39 18 82 19 96 2 14 6 31 10 37 5 9 285 12 1139 13 623 1 1143
5 1157 9 19 6 11 9 -35 10 -33 1 -73 6 -90 10 -30 7 -30 7 -5 13 69 18 143 20
232 6z m-3542 -3 c0 -3 -4 -8 -10 -11 -5 -3 -10 -1 -10 4 0 6 5 11 10 11 6 0
10 -2 10 -4z m-4254 -334 c26 -18 47 -70 39 -98 -12 -40 -6 -124 11 -156 23
-44 18 -58 -20 -58 -41 0 -79 29 -131 99 -64 89 -57 147 23 193 51 29 61 32
78 20z m-852 -81 c23 -11 70 -31 106 -45 l65 -25 0 -58 c0 -47 7 -72 33 -123
l34 -63 -40 -40 c-39 -39 -40 -39 -68 -24 -16 9 -42 18 -57 22 -17 3 -32 16
-40 33 -6 15 -18 32 -25 37 -8 6 -17 27 -21 45 -4 22 -15 39 -29 45 -15 7 -22
18 -22 37 0 15 -4 30 -10 33 -22 14 -1 145 23 145 6 0 28 -9 51 -19z m582
-198 c53 -57 63 -103 18 -86 -50 19 -94 113 -53 113 6 0 21 -12 35 -27z
m-1409 -153 c33 -31 61 -50 76 -50 13 0 33 -11 46 -24 16 -17 30 -22 56 -19
21 2 39 -2 48 -12 9 -8 21 -15 27 -15 6 0 15 -11 20 -25 8 -20 16 -25 45 -25
20 0 47 -7 60 -16 16 -10 34 -14 54 -9 17 3 32 2 36 -4 3 -6 19 -11 36 -11 16
0 29 -4 29 -9 0 -17 39 -23 74 -11 51 17 282 -10 425 -49 69 -18 93 -33 148
-88 28 -29 85 -31 110 -4 10 10 37 30 60 44 46 29 60 56 44 86 -9 15 -7 20 12
25 35 9 47 7 47 -8 0 -23 20 -29 38 -13 9 8 44 23 77 34 87 28 237 17 352 -25
148 -54 221 -65 415 -66 187 -1 197 -3 183 -47 -3 -10 3 -35 14 -57 23 -45 18
-56 -35 -86 -27 -15 -47 -38 -68 -80 -25 -47 -39 -62 -71 -75 -47 -20 -98 -49
-127 -73 -12 -10 -27 -18 -35 -18 -7 0 -13 -5 -13 -10 0 -23 139 34 183 75 27
25 95 27 108 3 21 -38 113 -29 169 18 25 22 30 33 30 70 0 52 27 76 52 46 17
-19 88 -165 88 -180 0 -5 8 -20 18 -33 10 -13 25 -49 34 -79 9 -30 23 -77 31
-104 12 -38 13 -64 5 -119 -8 -61 -7 -73 6 -83 10 -7 16 -26 16 -51 0 -29 6
-46 25 -63 14 -13 25 -34 25 -47 0 -13 7 -35 16 -49 9 -14 18 -42 20 -64 4
-38 37 -115 55 -126 5 -3 9 -16 9 -30 0 -29 18 -50 46 -56 13 -2 20 -13 22
-34 2 -20 16 -43 38 -65 19 -19 34 -43 34 -56 0 -13 4 -31 9 -41 37 -74 52
-179 29 -196 -8 -6 -17 -19 -21 -28 -6 -18 -28 -15 -92 12 -37 16 -149 50
-162 50 -8 0 -33 8 -56 18 -91 40 -125 52 -212 77 -49 14 -119 34 -155 44 -36
11 -76 22 -90 24 -123 25 -318 88 -360 116 -14 10 -59 35 -100 56 -41 21 -86
46 -100 55 -45 31 -161 81 -208 90 -26 5 -63 14 -82 20 -45 13 -246 13 -330 0
-36 -6 -87 -13 -115 -16 -27 -3 -78 -12 -113 -20 -58 -14 -66 -14 -89 1 -23
16 -24 18 -8 35 9 10 27 21 41 24 24 6 32 30 14 41 -5 3 -15 15 -20 25 -9 16
-8 19 7 13 10 -3 24 -13 31 -22 16 -20 39 -6 65 40 11 18 28 40 39 47 10 8 26
31 35 53 8 21 19 39 24 39 5 0 35 17 66 37 32 21 78 47 103 59 25 12 71 38
104 57 32 20 82 44 110 53 72 24 312 133 293 134 -52 1 -165 -29 -227 -60 -41
-20 -97 -45 -125 -55 -27 -10 -59 -25 -70 -32 -26 -17 -65 -17 -65 1 0 18 61
107 82 120 15 9 23 5 43 -17 14 -15 30 -27 36 -27 17 0 22 30 10 57 -16 35 -6
58 35 82 39 23 37 41 -5 41 -37 0 -93 -39 -201 -139 -48 -45 -101 -91 -117
-103 -15 -12 -46 -38 -68 -59 -51 -48 -123 -79 -184 -79 -38 0 -52 -5 -71 -25
-13 -14 -29 -25 -36 -25 -6 0 -17 -7 -24 -15 -9 -11 -8 -19 4 -37 27 -38 20
-51 -14 -26 l-30 22 -36 -35 c-20 -19 -40 -44 -45 -56 -10 -27 -26 -29 -65 -8
-37 19 -95 19 -120 0 -30 -23 -34 -19 -33 35 1 40 -3 56 -21 75 -21 23 -22 27
-10 51 13 23 12 27 -3 35 -9 6 -17 16 -17 24 0 10 17 15 66 17 65 3 67 4 78
36 9 28 21 38 66 55 56 23 96 64 380 392 47 54 96 108 109 120 16 16 20 25 11
30 -17 11 -197 -164 -228 -221 -19 -34 -111 -144 -155 -183 -127 -115 -149
-128 -171 -105 -9 8 -16 22 -16 30 0 19 -45 36 -75 28 -18 -4 -27 0 -40 20
-10 14 -22 26 -28 26 -6 0 -40 28 -74 62 -59 58 -63 65 -63 108 0 68 -9 90
-35 90 -13 0 -37 11 -53 25 -17 14 -40 25 -52 25 -12 0 -27 6 -34 13 -18 18
-46 73 -46 90 0 8 -11 35 -25 61 -14 26 -25 59 -25 72 0 37 -27 80 -92 151
-40 42 -58 69 -58 87 0 14 -4 26 -10 26 -6 0 -10 27 -10 60 0 77 16 79 87 10z
m3191 -15 c6 -90 -18 -140 -113 -235 -55 -56 -82 -78 -135 -113 -30 -20 -60
-40 -65 -44 -66 -50 -87 -61 -127 -67 -25 -4 -51 -13 -58 -21 -15 -18 -60 5
-94 50 -57 75 -17 195 66 195 20 0 60 24 207 122 14 10 35 23 46 30 10 7 43
35 72 62 57 53 100 72 159 71 l39 0 3 -50z m862 33 c0 -12 -22 -44 -50 -74
-45 -47 -50 -58 -50 -98 0 -25 -4 -48 -10 -51 -5 -3 -10 -24 -10 -46 0 -43
-40 -99 -71 -99 -19 0 -29 -19 -29 -55 0 -13 -8 -37 -17 -54 -18 -30 -33 -40
-33 -21 0 19 -117 108 -210 158 -14 7 -32 20 -41 28 -8 7 -30 17 -47 20 -53
11 -39 -16 48 -95 72 -65 85 -83 136 -186 67 -133 67 -151 0 -190 -54 -32 -72
-26 -140 43 -42 44 -48 54 -41 79 14 58 11 85 -13 101 -23 15 -23 15 -11 -12
11 -23 10 -30 -8 -54 -11 -15 -29 -45 -41 -67 -36 -71 -87 -113 -225 -187 -18
-9 -40 -17 -50 -18 -10 0 -32 -8 -50 -17 -18 -9 -36 -17 -42 -18 -5 0 -29 -4
-53 -9 -36 -7 -47 -5 -64 10 -25 24 -48 67 -48 93 0 11 -7 26 -15 35 -8 8 -15
26 -15 39 0 29 -40 119 -65 147 -29 33 -16 70 35 97 58 30 179 116 243 171 37
33 56 43 74 39 21 -4 23 -2 18 27 -10 57 65 137 115 121 10 -3 32 1 48 9 19
10 61 15 133 15 187 1 213 2 230 12 10 5 38 9 62 9 27 0 49 6 57 15 7 8 29 15
49 15 29 0 44 9 81 45 37 36 52 44 83 45 31 0 37 -3 37 -22z m-3983 -34 c-3
-3 -12 -4 -19 -1 -8 3 -5 6 6 6 11 1 17 -2 13 -5z m1214 -75 c52 -18 89 -22
202 -22 75 0 137 -3 137 -7 0 -3 -17 -12 -37 -19 -21 -8 -54 -21 -74 -31 -32
-15 -53 -16 -155 -10 -129 9 -171 16 -194 35 -8 6 -31 19 -51 28 -42 19 -54
40 -39 67 20 38 41 40 95 9 28 -16 80 -39 116 -50z m8369 -69 c0 -5 -5 -10
-11 -10 -5 0 -7 5 -4 10 3 6 8 10 11 10 2 0 4 -4 4 -10z m-98 -142 c-7 -7 -12
-8 -12 -2 0 14 12 26 19 19 2 -3 -1 -11 -7 -17z m-22 -28 c0 -5 -4 -10 -10
-10 -5 0 -10 5 -10 10 0 6 5 10 10 10 6 0 10 -4 10 -10z m-30 -40 c0 -5 -5
-10 -11 -10 -5 0 -7 5 -4 10 3 6 8 10 11 10 2 0 4 -4 4 -10z m-90 -135 c-7 -9
-15 -13 -17 -11 -7 7 7 26 19 26 6 0 6 -6 -2 -15z m-6843 -27 c27 -25 31 -73
7 -82 -28 -11 -54 -6 -73 13 -23 23 -18 55 12 76 27 19 26 19 54 -7z m1008
-270 c175 -173 214 -208 228 -208 7 0 28 -13 45 -28 29 -26 32 -34 32 -90 0
-40 5 -66 15 -76 8 -8 15 -21 15 -30 0 -8 5 -18 10 -21 36 -22 -21 -48 -62
-28 -15 8 -37 12 -47 8 -14 -4 -21 0 -26 14 -6 19 -56 51 -80 51 -6 0 -26 16
-45 35 -19 19 -42 35 -52 35 -10 0 -18 5 -18 10 0 6 -6 10 -14 10 -8 0 -27 10
-43 23 -15 12 -48 33 -73 46 -25 13 -63 41 -85 62 -23 22 -47 39 -54 39 -7 0
-19 7 -27 15 -9 8 -33 15 -55 15 -26 0 -42 5 -46 15 -7 19 21 52 51 61 27 8
73 46 133 107 26 26 55 47 65 47 11 0 70 -51 133 -112z m182 40 c11 -17 33
-150 27 -160 -11 -17 -42 -6 -74 27 -19 19 -40 35 -47 35 -15 0 -28 44 -18 60
11 17 68 50 87 50 9 0 20 -6 25 -12z m-628 -157 c20 -13 4 -31 -29 -31 -16 0
-32 -4 -35 -10 -8 -14 -92 -13 -101 1 -9 16 15 29 53 29 17 0 35 5 38 10 8 12
55 13 74 1z m171 -61 c0 -5 -2 -10 -4 -10 -3 0 -8 5 -11 10 -3 6 -1 10 4 10 6
0 11 -4 11 -10z m-1972 -76 c2 -11 -8 -32 -22 -45 -27 -27 -101 -57 -113 -45
-9 9 105 118 120 113 7 -2 13 -13 15 -23z m247 -485 c43 -31 95 -115 95 -153
0 -37 -43 -151 -67 -177 -18 -19 -23 -37 -23 -76 0 -33 -5 -55 -15 -63 -10 -9
-15 -32 -15 -76 0 -34 -4 -66 -10 -69 -5 -3 -10 -22 -10 -41 0 -33 -11 -61
-37 -94 -6 -8 -13 -26 -15 -40 -2 -18 -16 -31 -48 -48 -49 -25 -100 -24 -129
2 -9 9 -26 13 -38 10 -26 -7 -62 11 -71 36 -4 10 -51 64 -104 118 -54 55 -98
106 -98 114 0 8 -16 29 -35 48 -23 22 -35 43 -35 60 0 15 -9 35 -20 45 -25 23
-27 92 -4 136 8 17 13 33 10 36 -3 3 1 18 9 34 8 15 15 52 15 82 0 33 5 59 13
66 34 27 349 76 520 80 62 1 73 -2 112 -30z m151 2 c13 -13 76 -48 169 -94 44
-22 94 -50 110 -62 42 -31 130 -70 217 -96 115 -34 115 -34 12 -133 -88 -84
-90 -85 -140 -86 -34 0 -56 5 -64 15 -7 8 -21 15 -31 15 -10 0 -21 5 -24 10
-3 6 -20 10 -37 10 -34 0 -108 29 -108 42 0 4 -9 8 -19 8 -15 0 -21 8 -23 33
-3 31 -5 32 -50 35 -54 4 -61 19 -28 62 31 40 27 115 -10 173 -16 26 -30 54
-30 62 0 17 40 21 56 6z m769 -342 c22 -6 89 -21 150 -34 133 -29 192 -51 205
-76 15 -28 -6 -100 -31 -106 -17 -5 -19 -15 -19 -89 0 -49 -4 -84 -10 -84 -5
0 -10 -17 -10 -38 0 -21 -7 -47 -15 -58 -8 -10 -15 -31 -15 -45 0 -14 -9 -34
-20 -44 -13 -12 -20 -31 -20 -56 0 -21 -7 -44 -15 -53 -8 -8 -15 -19 -15 -24
0 -20 -32 -72 -45 -72 -17 0 -65 -61 -65 -83 0 -24 17 -21 25 3 10 30 24 24
19 -7 -8 -50 -14 -58 -43 -76 -16 -9 -42 -32 -59 -51 -16 -19 -38 -37 -48 -40
-11 -3 -39 -24 -64 -46 -25 -22 -49 -40 -53 -40 -16 0 -117 -92 -117 -106 0
-23 -42 -64 -66 -64 -12 0 -36 -8 -53 -17 -23 -13 -33 -15 -39 -7 -4 7 -16 13
-27 15 -35 7 -48 78 -36 192 14 121 24 145 64 138 4 -1 11 7 14 16 4 10 13 24
20 31 16 16 19 192 3 192 -6 0 -10 56 -10 149 0 123 3 155 18 183 9 18 20 35
25 36 4 2 7 41 7 87 l0 83 38 28 c20 15 70 61 111 101 68 67 78 73 115 73 23
0 59 -5 81 -11z m2045 -53 c0 -3 -4 -8 -10 -11 -5 -3 -10 -1 -10 4 0 6 5 11
10 11 6 0 10 -2 10 -4z m-1550 -105 c24 -11 49 -17 57 -14 7 3 13 0 13 -6 0
-6 -20 -11 -47 -11 -27 0 -58 -3 -70 -6 -18 -5 -23 -2 -23 13 0 15 17 43 26
43 1 0 21 -9 44 -19z m-1530 -405 c0 -40 -16 -55 -33 -33 -7 9 -27 17 -46 19
-51 5 -48 23 6 35 74 16 73 16 73 -21z m7861 -109 c-13 -12 -20 -15 -16 -7 14
26 28 41 33 35 3 -3 -5 -16 -17 -28z"/>
<path d="M3920 9681 c0 -17 18 -21 24 -6 3 9 0 15 -9 15 -8 0 -15 -4 -15 -9z"/>
<path d="M5184 6913 c-4 -10 -16 -40 -29 -68 -51 -114 -64 -143 -89 -196 -43
-93 -50 -89 139 -89 100 0 165 4 165 10 0 5 -8 24 -18 42 -10 18 -29 58 -41
88 -13 30 -38 87 -56 125 -18 39 -35 78 -38 88 -4 9 -11 17 -17 17 -6 0 -13
-8 -16 -17z"/>
<path d="M9695 7370 c-3 -5 3 -10 15 -10 12 0 18 5 15 10 -3 6 -10 10 -15 10
-5 0 -12 -4 -15 -10z"/>
<path d="M7050 7319 c0 -5 5 -7 10 -4 6 3 10 8 10 11 0 2 -4 4 -10 4 -5 0 -10
-5 -10 -11z"/>
<path d="M8093 7060 c-121 -24 -201 -119 -223 -264 -13 -80 -6 -130 17 -122 9
4 18 -4 25 -24 5 -17 14 -30 19 -30 5 0 9 -6 9 -14 0 -7 7 -19 15 -26 8 -7 15
-21 15 -31 0 -50 71 -139 111 -139 10 0 21 -4 24 -10 3 -5 37 -10 75 -10 38 0
72 5 75 10 3 6 13 10 21 10 56 0 128 166 126 289 -1 19 5 43 12 53 13 18 14
18 21 1 6 -16 8 -15 16 6 12 30 -21 156 -53 205 -56 86 -171 122 -305 96z"/>
<path d="M9299 6976 c-2 -2 -2 -32 -1 -65 l4 -61 158 0 c180 0 183 1 178 77
l-3 48 -166 3 c-91 1 -167 1 -170 -2z"/>
<path d="M3014 5059 c-25 -28 -78 -49 -125 -49 -39 0 -58 -13 -38 -26 7 -4 35
-6 62 -5 50 1 101 28 135 69 28 36 -3 45 -34 11z"/>
<path d="M5900 3430 c0 -5 5 -10 10 -10 6 0 10 5 10 10 0 6 -4 10 -10 10 -5 0
-10 -4 -10 -10z"/>
<path d="M5870 3389 c0 -5 5 -7 10 -4 6 3 10 8 10 11 0 2 -4 4 -10 4 -5 0 -10
-5 -10 -11z"/>
<path d="M9291 4064 c-9 -20 -9 -25 0 -22 14 5 32 48 20 48 -4 0 -13 -12 -20
-26z"/>
<path d="M875 4800 c-4 -6 5 -10 20 -10 15 0 24 4 20 10 -3 6 -12 10 -20 10
-8 0 -17 -4 -20 -10z"/>
<path d="M2901 4336 c-23 -24 -22 -46 3 -46 32 0 126 -126 126 -168 0 -10 6
-28 13 -42 7 -14 22 -49 32 -77 10 -29 23 -53 27 -53 23 0 -3 96 -51 190 -10
19 -21 47 -25 62 -3 14 -18 41 -33 59 -17 19 -27 44 -28 63 0 41 -32 47 -64
12z"/>
<path d="M2290 4265 c-36 -13 -66 -29 -68 -34 -2 -6 -21 -15 -43 -21 -38 -10
-54 -30 -25 -30 22 0 128 42 158 62 14 10 30 18 36 18 5 0 15 7 22 15 18 21
-1 19 -80 -10z"/>
<path d="M3180 4883 c-19 -15 -44 -36 -54 -45 -17 -16 -18 -18 -3 -18 9 0 17
5 17 10 0 6 5 10 10 10 15 0 90 51 90 61 0 17 -25 9 -60 -18z"/>
<path d="M3053 4786 c-84 -73 -154 -146 -148 -155 12 -21 34 -10 62 30 15 22
52 65 82 95 55 54 57 75 4 30z"/>
<path d="M3420 4758 c0 -14 149 -164 190 -191 27 -19 50 -22 50 -7 0 6 -6 10
-14 10 -8 0 -28 17 -46 38 -75 89 -152 162 -170 162 -6 0 -10 -6 -10 -12z"/>
</g>
</svg>
